static_grf.mot
version=1
nRows=15
nColumns 19
inDegrees=yes
endheader
time	1_ground_force_vx	1_ground_force_vy	1_ground_force_vz	1_ground_force_px	1_ground_force_py	1_ground_force_pz	1_ground_torque_x	1_ground_torque_y	1_ground_torque_z	2_ground_force_vx	2_ground_force_vy	2_ground_force_vz	2_ground_force_px	2_ground_force_py	2_ground_force_pz	2_ground_torque_x	2_ground_torque_y	2_ground_torque_z
            1.002500	           -5.886956	          415.110064	          -30.764116	           -0.296705	            0.006150	           -0.391074	           -0.027748	            1.956628	           -0.145007	            2.163931	          494.703773	           34.566588	           -0.309647	            0.005387	           -0.703574	           -0.001807	           -0.413152	           -0.028868
            1.003000	           -5.657367	          414.929283	          -30.627894	           -0.296701	            0.006151	           -0.391254	           -0.027348	            2.005760	           -0.148055	            2.210801	          494.703775	           34.613496	           -0.309538	            0.005387	           -0.703459	           -0.001665	           -0.372501	           -0.026063
            1.003500	           -5.794863	          414.748960	          -30.628326	           -0.296806	            0.006153	           -0.391628	           -0.026746	            1.914291	           -0.141366	            2.448333	          493.784191	           34.516255	           -0.309833	            0.005385	           -0.703369	           -0.001918	           -0.386871	           -0.027043
            1.004000	           -5.656878	          414.748200	          -30.445243	           -0.297015	            0.006151	           -0.391291	           -0.026451	            1.939328	           -0.142359	            2.353427	          494.151190	           34.799178	           -0.309738	            0.005386	           -0.703390	           -0.001783	           -0.374392	           -0.026365
            1.004500	           -5.749037	          415.469835	          -30.579488	           -0.296766	            0.006150	           -0.390936	           -0.027595	            1.994258	           -0.146782	            2.493209	          494.336675	           34.565135	           -0.309710	            0.005386	           -0.703439	           -0.001883	           -0.373380	           -0.026108
            1.005000	           -5.978267	          414.929221	          -30.627098	           -0.296831	            0.006151	           -0.391211	           -0.028465	            1.975675	           -0.145830	            2.212939	          494.150181	           34.940022	           -0.309702	            0.005386	           -0.703351	           -0.001597	           -0.356506	           -0.025208
            1.005500	           -5.657480	          414.929480	          -30.673746	           -0.296570	            0.006152	           -0.391529	           -0.027056	            1.984355	           -0.146694	            2.351392	          494.703947	           34.707293	           -0.309646	            0.005387	           -0.703688	           -0.001994	           -0.419554	           -0.029435
            1.006000	           -6.023883	          414.928819	          -30.535272	           -0.296977	            0.006151	           -0.391246	           -0.028305	            1.949641	           -0.143477	            2.261618	          493.599206	           34.562606	           -0.309744	            0.005386	           -0.703435	           -0.001879	           -0.410179	           -0.028721
            1.006500	           -5.932865	          415.470586	          -30.762456	           -0.296609	            0.006150	           -0.391047	           -0.027941	            1.956686	           -0.144878	            2.443804	          495.072232	           34.802423	           -0.309472	            0.005387	           -0.703482	           -0.002143	           -0.434118	           -0.030517
            1.007000	           -5.887118	          414.749926	          -30.857374	           -0.296713	            0.006151	           -0.391292	           -0.027841	            1.961429	           -0.145930	            2.210822	          494.703607	           34.660424	           -0.309645	            0.005387	           -0.703536	           -0.001906	           -0.426592	           -0.029888
            1.007500	           -5.702964	          414.208015	          -30.585012	           -0.296826	            0.006152	           -0.391394	           -0.026898	            1.953626	           -0.144255	            2.399009	          494.519139	           34.941256	           -0.309559	            0.005387	           -0.703564	           -0.002050	           -0.422548	           -0.029856
            1.008000	           -5.932440	          414.388599	          -30.675382	           -0.296593	            0.006153	           -0.391710	           -0.028131	            1.964962	           -0.145458	            2.304604	          494.703276	           34.848097	           -0.309383	            0.005388	           -0.703650	           -0.001805	           -0.387480	           -0.027295
            1.008500	           -5.657220	          414.748790	          -30.582807	           -0.296645	            0.006152	           -0.391353	           -0.026908	            1.972740	           -0.145466	            2.352762	          494.335331	           34.799835	           -0.309711	            0.005387	           -0.703704	           -0.001726	           -0.362745	           -0.025536
            1.009000	           -5.748696	          415.469245	          -30.441924	           -0.296821	            0.006151	           -0.391147	           -0.027097	            1.958342	           -0.143490	            2.257774	          494.702939	           34.895045	           -0.309842	            0.005386	           -0.703535	           -0.001699	           -0.372326	           -0.026263
            1.009500	           -5.841029	          414.028675	          -30.814727	           -0.296764	            0.006152	           -0.391572	           -0.028372	            2.011074	           -0.149677	            2.258295	          494.519970	           34.565891	           -0.309602	            0.005387	           -0.703601	           -0.001806	           -0.395396	           -0.027637
